<?xml version="1.0" encoding="utf-8"?>
<!-- Generator: Adobe Illustrator 16.0.0, SVG Export Plug-In . SVG Version: 6.00 Build 0)  -->
<!DOCTYPE svg PUBLIC "-//W3C//DTD SVG 1.1//EN" "http://www.w3.org/Graphics/SVG/1.1/DTD/svg11.dtd">
<svg version="1.1" id="Vrstva_1" xmlns="http://www.w3.org/2000/svg" xmlns:xlink="http://www.w3.org/1999/xlink" x="0px" y="0px"
	 width="359.622px" height="179.368px" viewBox="0 0 359.622 179.368" enable-background="new 0 0 359.622 179.368"
	 xml:space="preserve">
<g>
	<path d="M0,133.634c2,1.984,4.46,3.491,7.497,4.431C8.279,130.447,5,124.539,0,120.549V133.634z"/>
	<path d="M0,101.824c6,1.104,11.153,0.902,14.092-0.662C10.353,98.738,6,94.389,0,92.312V101.824z"/>
	<path d="M0,55.483c6-4.159,9.831-13.997,7.265-18.622C5.123,38.544,3,40.792,0,43.344V55.483z"/>
	<path d="M0,146.75c3-0.061,5.154-1.039,6.932-3.613C5.406,141.754,3,140.287,0,139.225V146.75z"/>
	<path d="M0,6.9v7.635c3-1.441,4.656-3.583,5.24-6.1C3.538,7.399,2,6.939,0,6.9z"/>
	<path d="M0,23.988c5,1.922,9.617-1.053,11.592-4.383C7.987,17.784,5,17.559,0,20.304V23.988z"/>
	<path d="M0,2.35C2,3.2,4.179,3.603,6.561,3.359C6.277,2.147,6.023,1.03,5.478,0H0V2.35z"/>
	<path d="M0,114.409c2,3.021,4.098,5.037,8.929,4.774C8.61,113.246,6,110.431,0,109.344V114.409z"/>
	<path d="M287.353,58.734c1.337-9.583-4.813-20.056-11.553-23.485C273.826,42.788,280.046,56.571,287.353,58.734z"/>
	<path d="M269.88,94.807c0.446,6.361,9.628,11.691,18.603,9.58C286.718,97.668,276.739,90.857,269.88,94.807z"/>
	<path d="M287.353,1.81c-0.104-0.59-0.217-1.196-0.34-1.81h-4.868C283.75,0.898,285.481,1.537,287.353,1.81z"/>
	<path d="M271.573,51.97c-6.08-0.187-5.965,12.963-1.129,14.089C273.403,63.596,274.343,55.305,271.573,51.97z"/>
	<path d="M271.573,32.245c-9.443,1.012-14.676,11.857-12.4,20.852C266.616,49.81,273.708,43.235,271.573,32.245z"/>
	<path d="M259.736,2.375c2.468,2.344,10.827,5.82,13.526,1.125c-0.612-1.59-2.637-2.864-4.953-3.5h-5.876
		C261.227,0.432,260.246,1.195,259.736,2.375z"/>
	<path d="M259.735,81.839c5.118-0.023,7.984-5.072,6.203-10.145C261.217,72.12,258.396,77.215,259.735,81.839z"/>
	<path d="M267.065,23.229c-0.144-7.094-2.467-16.628-11.274-16.911C254.027,15.265,260.511,20.738,267.065,23.229z"/>
	<path d="M243.957,32.808c7.163,3.03,20.313,2.417,20.853-6.198C257.298,23.931,245.531,25.877,243.957,32.808z"/>
	<path d="M243.959,64.933c2.648,6.294,13.386,4.251,19.722,2.817C262.417,60.143,247.882,58.896,243.959,64.933z"/>
	<path d="M242.83,71.134c-3.429,9.321,3.613,17.235,11.267,19.162C255.837,80.644,250.861,72.896,242.83,71.134z"/>
	<path d="M247.903,39.006c-4.065,2.89-1.037,11.299,4.504,11.273C254.239,45.326,252.013,39.851,247.903,39.006z"/>
	<path d="M252.413,1.244c0.084-0.405,0.13-0.823,0.158-1.244h-4.848C248.954,0.952,250.556,1.466,252.413,1.244z"/>
	<path d="M240.573,2.936c1.623,5.568,1.174,17.965,10.146,18.037C252.714,11.745,248.978,3.616,240.573,2.936z"/>
	<path d="M230.995,38.445c4.766-5.005,9.533-10.03,10.145-19.164C233.151,15.642,223.946,30.648,230.995,38.445z"/>
	<path d="M225.921,89.734c8.148-0.542,13.434-8.526,10.145-16.909C227.755,73.175,225.994,83.015,225.921,89.734z"/>
	<path d="M221.411,45.77c1.997,5.449,14.607,9.346,18.6,5.638C237.452,46.758,228.009,40.861,221.411,45.77z"/>
	<path d="M232.683,56.479c-3.33,3.238-2.654,10.896,2.816,11.271C236.841,63.852,236.161,57.419,232.683,56.479z"/>
	<path d="M8.42,64.697c-3.336,3.241-2.657,10.895,2.813,11.271C12.575,72.071,11.896,65.638,8.42,64.697z"/>
	<path d="M230.995,3.5c-0.184-1.229-0.494-2.395-0.898-3.5H218.9C221.839,2.837,225.825,4.438,230.995,3.5z"/>
	<path d="M228.739,9.699c-7.68-3.145-17.26,0.987-19.162,7.328C215.425,21.819,226.902,16.088,228.739,9.699z"/>
	<path d="M212.958,75.075c4.793,3.735,14.067,0.166,14.09-6.198C221.649,70.239,214.46,69.816,212.958,75.075z"/>
	<path d="M221.977,38.445c-1.08-8.339-8.736-13.01-15.778-13.53c-0.451,0.122-0.663,0.472-0.565,1.131
		C207.395,33.511,212.976,40.086,221.977,38.445z"/>
	<path d="M201.124,15.333c4.507-3.24,9.853-8.611,10.313-15.333h-9.408C200.144,4.716,200.044,11.258,201.124,15.333z"/>
	<path d="M187.596,33.936c1.033,5.705,8.97,11.881,18.037,9.579C204.624,35.672,196.873,31.656,187.596,33.936z"/>
	<path d="M270.572,69.327c0.667,3.689,5.801,7.684,11.659,6.195C281.583,70.452,276.569,67.854,270.572,69.327z"/>
	<path d="M274.134,23.999c2.367,2.908,8.789,3.917,13.195-0.222C284.304,19.651,278.669,19.807,274.134,23.999z"/>
	<path d="M199.995,27.17c2.252-11.671-11.154-12.517-17.47-17.472C183.392,18.249,190.673,25.198,199.995,27.17z"/>
	<path d="M178.575,95.367c8.483,1.316,10.409-8.736,12.405-15.778C182.713,78.128,178.084,88.065,178.575,95.367z"/>
	<path d="M183.091,2.374c0.249-0.795,0.363-1.592,0.377-2.374h-5.458C179.111,1.506,180.806,2.482,183.091,2.374z"/>
	<path d="M162.234,14.775c1.715,7.112,4.628,13.03,11.273,15.213C176.302,21.513,168.292,10.733,162.234,14.775z"/>
	<path d="M161.105,8.011c4.956,2.299,13.103,2.159,14.094-3.946C170.783,1.764,161.669,2.866,161.105,8.011z"/>
	<path d="M161.105,41.262c3.643-1.128,3.477-9.23,1.692-12.398C156.997,27.993,156.69,40.251,161.105,41.262z"/>
	<path d="M158.291,94.805c3.896-1.856,4.672-9.466,2.252-12.965C155.093,81.816,153.547,92.877,158.291,94.805z"/>
	<path d="M149.835,112.838c-0.14,5.613,10.425,8.197,14.09,4.508C162.045,113.355,154.671,110.28,149.835,112.838z"/>
	<path d="M150.961,41.262c-1.899,7.631-0.591,18.504,5.636,22.544C162.585,57.559,158.853,42.365,150.961,41.262z"/>
	<path d="M156.597,11.392c-7.047,2.182-9.369,12-8.453,20.288C156.32,30.6,161.225,19.962,156.597,11.392z"/>
	<path d="M11.395,140.094c-3.978,4.167,0.146,12.168,5.859,12.047C19.589,148.088,16.94,141.186,11.395,140.094z"/>
	<path d="M157.162,105.512c-0.588-10.473-12.284-15.311-20.289-14.654C139.597,99.125,147.415,107.977,157.162,105.512z"/>
	<path d="M140.255,112.838c-4.208,8.597,2.605,16.626,9.582,19.164C153.851,123.619,146.995,115.609,140.255,112.838z"/>
	<path d="M145.889,9.7c-2.795-5.191-16.764-3.313-16.344,3.381C135.347,14.513,143.379,13.434,145.889,9.7z"/>
	<path d="M152.086,4.627c-0.442-1.659-1.094-3.204-1.915-4.627h-12.829C141.695,2.697,147.106,4.167,152.086,4.627z"/>
	<path d="M140.818,31.118c-1.105-4.722-3.009-8.644-9.02-8.455C131.728,28.277,136.52,33.44,140.818,31.118z"/>
	<path d="M117.709,48.584c11.624,3.689,23.157-3.308,24.799-11.27C132.435,39.265,119.588,38.445,117.709,48.584z"/>
	<path d="M124.473,9.7c2.384-1.631,4.006-6.04,3.606-9.7h-5.633C121.348,3.611,121.409,7.828,124.473,9.7z"/>
	<path d="M102.492,10.266c1.29,2.415,4.556,5.939,8.455,7.325c4.297,1.525,14.043,2.887,16.907,0
		C119.941,15.148,111.301,3.054,102.492,10.266z"/>
	<path d="M107.567,82.967c9.979,2.115,18.759-1.408,20.85-9.018C119.354,74.844,109.208,74.657,107.567,82.967z"/>
	<path d="M9.975,3.446c2.583-0.059,4.847-1.462,6.59-3.446h-6.348C9.854,1.218,9.732,2.396,9.975,3.446z"/>
	<path d="M114.892,24.354c-5.473,4.108-6.458,15.428-5.072,23.107C117.119,45.182,123.696,29.285,114.892,24.354z"/>
	<path d="M112.074,64.932c0.07-6.269-4.041-8.36-9.58-9.017C100.682,61.739,105.875,65.26,112.074,64.932z"/>
	<path d="M97.984,38.445c-1.784,4.248,0.187,10.425,5.073,11.271C106.817,45.349,103.292,38.772,97.984,38.445z"/>
	<path d="M99.11,12.521c-6.53,1.946-8.688,14.205-6.2,21.416C96.646,31.632,105.542,19.609,99.11,12.521z"/>
	<path d="M99.11,1.244c0.003-0.425-0.011-0.831-0.02-1.244h-5.269C95.524,0.757,97.326,1.165,99.11,1.244z"/>
	<path d="M95.728,73.389c6.627-3.922,3.336-15.922-0.563-20.292C88.826,56.008,89.859,70.853,95.728,73.389z"/>
	<path d="M77.131,19.847c9.204,0.891,16.504-7.871,18.035-14.654C83.92,4.487,75.347,9.395,77.131,19.847z"/>
	<path d="M82.767,72.261c1.127,8.642,5.87,13.667,14.653,14.65C97.021,80.08,91.199,71.063,82.767,72.261z"/>
	<path d="M65.296,46.335c6.573,4.556,19.279,5.047,27.052,1.126C88.568,39.641,70.416,39.384,65.296,46.335z"/>
	<path d="M77.131,3.5c0.206-1.045,0.418-2.229,0.612-3.5h-4.372C74.512,1.468,75.783,2.687,77.131,3.5z"/>
	<path d="M64.168,40.7c8.174-1.248,13.832-7.938,14.09-15.22C70.907,27.548,62.852,31.822,64.168,40.7z"/>
	<path d="M72.622,68.879c-0.895,8.03-6.127,20.148-0.563,28.179C80.3,93.604,77.598,73.083,72.622,68.879z"/>
	<path d="M66.985,51.408c-3.804,3.638-2.02,11.74,2.257,13.525C73.019,62.069,70.791,53.263,66.985,51.408z"/>
	<path d="M65.857,2.375c-2.651,3.591-2.348,12.842,1.692,14.651C71.706,14.186,70.858,3.735,65.857,2.375z"/>
	<path d="M54.586,84.097c0.305,7.819,3.9,17.118,12.962,18.032C67.95,93.981,62.851,83.58,54.586,84.097z"/>
	<path d="M50.642,26.609c4.061,3.732,13.55,3.591,14.09-3.381C59.584,21.067,53.438,23.229,50.642,26.609z"/>
	<path d="M60.789,48.025c-8.55-1.409-12.66,8.969-12.967,15.782C55.078,64.017,62.873,57.16,60.789,48.025z"/>
	<path d="M56.279,9.135C58.806,6.515,59.285,3.222,58.523,0h-9.75C50.51,3.869,53.283,7,56.279,9.135z"/>
	<path d="M60.223,42.954c-2.024-8.34-11.391-12.26-21.416-10.711C40.309,40.932,50.055,46.593,60.223,42.954z"/>
	<path d="M33.731,14.209c7.446,1.362,16.183,7.279,24.236,2.817C55.339,10.144,37.302,5.308,33.731,14.209z"/>
	<path d="M36.551,90.857c4.508,0.26,15.43-0.799,13.528-6.761C48.22,78.225,36.292,84.962,36.551,90.857z"/>
	<path d="M30.915,58.734c3.688,3.166,13.363,2.066,12.962-3.947C39.181,52.37,30.21,54.342,30.915,58.734z"/>
	<path d="M39.929,107.201c0.849-4.486-0.537-11.434-5.633-11.834C32.23,101.098,35.331,106.285,39.929,107.201z"/>
	<path d="M2.078,176.425c3.604,2.8,10.423,4.737,13.101,0.388C11.021,172.357,4.989,172.746,2.078,176.425z"/>
	<path d="M37.675,115.093c-3.987,2.208-4.88,12.257,0.567,13.525C41.035,125.567,42.632,116.972,37.675,115.093z"/>
	<path d="M34.859,5.191c1.687-0.986,3.262-2.86,4.544-5.191h-6.192C33.701,1.934,34.274,3.712,34.859,5.191z"/>
	<path d="M23.585,40.134c7.379-0.729,12.168-6.974,10.147-15.217C26.737,26.02,21.897,32.198,23.585,40.134z"/>
	<path d="M24.15,68.314c-6.806,7.633,0.871,19.961,7.329,23.107C34.039,83.157,31.009,70.921,24.15,68.314z"/>
	<path d="M29.317,65.589c4.416,12.729,14.56,12.47,24.141,11.743C50.477,69.207,42.326,62.442,29.317,65.589z"/>
	<path d="M11.751,7.446c1.646,9.346,10.219,16.835,20.291,14.091C29.577,12.892,20.02,8.408,11.751,7.446z"/>
	<path d="M19.643,161.308c9.981,1.126,16.837-5.706,18.035-15.217C28.238,147.735,22.532,153.113,19.643,161.308z"/>
	<path d="M11.188,113.401c6.128,2.913,19.63,2.185,22.544-4.507C27.604,101.686,14.193,106.381,11.188,113.401z"/>
	<path d="M29.788,99.874C26.924,93.51,20.771,87.5,12.317,88.603C12.366,95.32,22.721,105.418,29.788,99.874z"/>
	<path d="M23.585,62.117c5.899-9.936-1.782-21.536-10.706-23.671C11.989,46.426,15.743,59.155,23.585,62.117z"/>
	<path d="M12.316,128.621c-0.443,0.114-0.658,0.468-0.565,1.127c2.817,8.642,10.102,12.821,20.856,13.527
		C31.689,135.1,21.474,128.548,12.316,128.621z"/>
	<path d="M14.568,21.537c-2.04,3.827-1.593,12.14,3.385,12.399C20.793,30.785,20.651,20.806,14.568,21.537z"/>
	<path d="M341.024,14.074c0.75,8.145,10.285,15.002,18.598,10.142C358.989,17.852,349.218,12.874,341.024,14.074z"/>
	<path d="M353.985,4.49c-2.863-2.914-13.715-2.584-14.09,2.254C342.973,9.868,353.166,8.858,353.985,4.49z"/>
	<path d="M330.878,35.487c6.457-0.352,9.016-7.468,7.326-14.089C332.448,22.434,330.085,29.76,330.878,35.487z"/>
	<path d="M333.698,5.615c-0.1-1.925-0.406-3.806-0.896-5.615h-8.737C326.976,2.399,330.369,4.304,333.698,5.615z"/>
	<path d="M316.786,11.254c1.832,6.856,13.061,7.254,19.729,4.509C335.316,9.045,321.529,5.852,316.786,11.254z"/>
	<path d="M301.011,1.109c1.113-0.228,2.139-0.61,3.084-1.109h-3.531C300.698,0.369,300.845,0.739,301.011,1.109z"/>
	<path d="M287.479,30.978c0.4,5.544,9.043,10.196,13.531,6.201C300.866,33.326,293.165,29.312,287.479,30.978z"/>
</g>
</svg>
